<svg width="1200" height="1200" viewBox="0 0 1200 1200" fill="none" xmlns="http://www.w3.org/2000/svg">
<rect width="1200" height="1200" fill="#E2E8F0"/>
<rect x="72" y="72" width="1056" height="1056" rx="64" fill="#F8FAFC"/>
<rect x="148" y="198" width="412" height="804" rx="34" fill="#FFFFFF" stroke="#CBD5E1" stroke-width="10"/>
<rect x="640" y="198" width="412" height="804" rx="34" fill="#FFFFFF" stroke="#CBD5E1" stroke-width="10"/>
<rect x="188" y="258" width="332" height="48" rx="14" fill="#DBEAFE"/>
<rect x="680" y="258" width="332" height="48" rx="14" fill="#DCFCE7"/>
<rect x="188" y="352" width="332" height="212" rx="20" fill="#EFF6FF"/>
<rect x="680" y="352" width="332" height="212" rx="20" fill="#ECFDF5"/>
<rect x="188" y="610" width="332" height="52" rx="14" fill="#F1F5F9"/>
<rect x="188" y="700" width="332" height="52" rx="14" fill="#F1F5F9"/>
<rect x="188" y="790" width="332" height="52" rx="14" fill="#F1F5F9"/>
<rect x="680" y="610" width="332" height="52" rx="14" fill="#F1F5F9"/>
<rect x="680" y="700" width="332" height="52" rx="14" fill="#F1F5F9"/>
<rect x="680" y="790" width="332" height="52" rx="14" fill="#F1F5F9"/>
<text x="150" y="1104" fill="#0F172A" font-family="Arial, sans-serif" font-size="48" font-weight="700">Inside pages for itinerary, budget, and merch wish list planning.</text>
</svg>
