<svg width="1200" height="1200" viewBox="0 0 1200 1200" fill="none" xmlns="http://www.w3.org/2000/svg">
<rect width="1200" height="1200" fill="#141414"/>
<rect x="72" y="72" width="1056" height="1056" rx="64" fill="url(#bg)"/>
<path d="M453 309L520 244H680L747 309L838 394L780 474L714 432V864H486V432L420 474L362 394L453 309Z" fill="#0F172A"/>
<path d="M486 432L420 474L362 394L453 309L520 244H680L747 309L838 394L780 474L714 432" stroke="#F3F4F6" stroke-width="18" stroke-linejoin="round"/>
<path d="M545 244L569 332H631L655 244" stroke="#EAB308" stroke-width="18" stroke-linecap="round"/>
<path d="M520 244H680L714 432H486L520 244Z" fill="#111827"/>
<path d="M542 569H658" stroke="#F59E0B" stroke-width="18" stroke-linecap="round"/>
<path d="M542 631H658" stroke="#F59E0B" stroke-width="18" stroke-linecap="round"/>
<path d="M540 864V1002" stroke="#111827" stroke-width="20" stroke-linecap="round"/>
<path d="M660 864V1002" stroke="#111827" stroke-width="20" stroke-linecap="round"/>
<rect x="128" y="128" width="222" height="72" rx="36" fill="#F59E0B"/>
<text x="239" y="174" text-anchor="middle" fill="#111827" font-family="Arial, sans-serif" font-size="34" font-weight="700">Tour Drop</text>
<text x="128" y="1000" fill="#F9FAFB" font-family="Arial, sans-serif" font-size="68" font-weight="700">Teso Beats Tour Hoodie</text>
<text x="128" y="1060" fill="#D1D5DB" font-family="Arial, sans-serif" font-size="32">Sunrise in Soroti merch with heavyweight fleece and gold stage details.</text>
<defs>
<linearGradient id="bg" x1="72" y1="72" x2="1128" y2="1128" gradientUnits="userSpaceOnUse">
<stop stop-color="#1F2937"/>
<stop offset="1" stop-color="#020617"/>
</linearGradient>
</defs>
</svg>
