<svg width="1200" height="1200" viewBox="0 0 1200 1200" fill="none" xmlns="http://www.w3.org/2000/svg">
<rect width="1200" height="1200" fill="#0F172A"/>
<rect x="72" y="72" width="1056" height="1056" rx="64" fill="#111827"/>
<g opacity="0.9">
<rect x="175" y="210" width="210" height="210" rx="42" fill="#EA580C"/>
<rect x="495" y="210" width="210" height="210" rx="42" fill="#7C3AED"/>
<rect x="815" y="210" width="210" height="210" rx="42" fill="#0EA5E9"/>
<rect x="175" y="500" width="210" height="210" rx="42" fill="#10B981"/>
<rect x="495" y="500" width="210" height="210" rx="42" fill="#F59E0B"/>
<rect x="815" y="500" width="210" height="210" rx="42" fill="#EF4444"/>
</g>
<path d="M210 315H350" stroke="#F9FAFB" stroke-width="12" stroke-linecap="round"/>
<path d="M530 315H670" stroke="#F9FAFB" stroke-width="12" stroke-linecap="round"/>
<path d="M850 315H990" stroke="#F9FAFB" stroke-width="12" stroke-linecap="round"/>
<path d="M210 605H350" stroke="#F9FAFB" stroke-width="12" stroke-linecap="round"/>
<path d="M530 605H670" stroke="#F9FAFB" stroke-width="12" stroke-linecap="round"/>
<path d="M850 605H990" stroke="#F9FAFB" stroke-width="12" stroke-linecap="round"/>
<text x="150" y="900" fill="#F9FAFB" font-family="Arial, sans-serif" font-size="76" font-weight="700">Loop Palette Preview</text>
<text x="150" y="972" fill="#CBD5E1" font-family="Arial, sans-serif" font-size="34">Built for layering intros, breakdowns, and fast-cut percussion stacks.</text>
</svg>
